HIERARCHY
ROOT Hips
{
	OFFSET 0.00000 0.00000 0.00000
	CHANNELS 6 Xposition Yposition Zposition Zrotation Yrotation Xrotation 
	JOINT LHipJoint
	{
		OFFSET 0 0 0
		CHANNELS 3 Zrotation Yrotation Xrotation
		JOINT LeftHip
		{
			OFFSET 3.13874 -1.57224 1.49786
			CHANNELS 3 Zrotation Yrotation Xrotation
			JOINT LeftKnee
			{
				OFFSET 2.10955 -5.79594 0.00000
				CHANNELS 3 Zrotation Yrotation Xrotation
				JOINT LeftAnkle
				{
					OFFSET 2.41843 -6.64458 0.00000
					CHANNELS 3 Zrotation Yrotation Xrotation
					JOINT LeftToe
					{
						OFFSET 0.04713 -0.12948 1.66229
						CHANNELS 3 Zrotation Yrotation Xrotation
						End Site
						{
							OFFSET 0.00000 -0.00000 0.85167
						}
					}
				}
			}
		}
	}
	JOINT RHipJoint
	{
		OFFSET 0 0 0
		CHANNELS 3 Zrotation Yrotation Xrotation
		JOINT RightHip
		{
			OFFSET -3.13988 -1.57224 1.49786
			CHANNELS 3 Zrotation Yrotation Xrotation
			JOINT RightKnee
			{
				OFFSET -2.15006 -5.90725 0.00000
				CHANNELS 3 Zrotation Yrotation Xrotation
				JOINT RightAnkle
				{
					OFFSET -2.34496 -6.44273 0.00000
					CHANNELS 3 Zrotation Yrotation Xrotation
					JOINT RightToe
					{
						OFFSET -0.08699 -0.23900 1.55223
						CHANNELS 3 Zrotation Yrotation Xrotation
						End Site
						{
							OFFSET -0.00000 -0.00000 0.80281
						}
					}
				}
			}
		}
	}
	JOINT lowerback
	{
		OFFSET 0 0 0
		CHANNELS 3 Zrotation Yrotation Xrotation
		JOINT Chest
		{
			OFFSET 0.01292 1.96517 -0.16495
			CHANNELS 3 Zrotation Yrotation Xrotation
			JOINT Chest2
			{
				OFFSET 0.02122 1.88666 0.19706
				CHANNELS 3 Zrotation Yrotation Xrotation
				JOINT lowerneck
				{
					OFFSET 0 0 0
					CHANNELS 3 Zrotation Yrotation Xrotation
					JOINT Neck
					{
						OFFSET -0.01683 1.81591 0.07903
						CHANNELS 3 Zrotation Yrotation Xrotation
						JOINT Head
						{
							OFFSET 0.00815 1.74013 -0.47700
							CHANNELS 3 Zrotation Yrotation Xrotation
							End Site
							{
								OFFSET -0.00204 1.83225 -0.16933
							}
						}
					}
				}
				JOINT LeftCollar
				{
					OFFSET 0 0 0
					CHANNELS 3 Zrotation Yrotation Xrotation
					JOINT LeftShoulder
					{
						OFFSET 3.38482 1.41533 0.19802
CHANNELS 3 Zrotation Xrotation Yrotation
						JOINT LeftElbow
						{
OFFSET 0 -4.327120 0.000000
CHANNELS 3 Zrotation Xrotation Yrotation
							JOINT LeftWrist
							{
OFFSET 0 -3.285870 -0.000000
CHANNELS 3 Zrotation Xrotation Yrotation
								JOINT lhand
								{
									OFFSET 0 0 0
CHANNELS 3 Zrotation Xrotation Yrotation
									JOINT LFingers
									{
OFFSET 0 -0.433160 -0.000000
CHANNELS 3 Zrotation Xrotation Yrotation
										End Site
										{
OFFSET 0 -0.349220 -0.000000
										}
									}
								}
								JOINT LThumb
								{
OFFSET 0 0.000000 0.000000
CHANNELS 3 Zrotation Xrotation Yrotation
									End Site
									{
OFFSET 0 -0.354560 0.354560
									}
								}
							}
						}
					}
				}
				JOINT RightCollar
				{
					OFFSET 0 0 0
					CHANNELS 3 Zrotation Yrotation Xrotation
					JOINT RightShoulder
					{
						OFFSET -3.09725 1.62858 -0.14144
CHANNELS 3 Zrotation Xrotation Yrotation
						JOINT RightElbow
						{
OFFSET 0 -4.291040 0.000000
CHANNELS 3 Zrotation Xrotation Yrotation
							JOINT RightWrist
							{
OFFSET 0 -3.227200 -0.000000
CHANNELS 3 Zrotation Xrotation Yrotation
								JOINT rhand
								{
									OFFSET 0 0 0
CHANNELS 3 Zrotation Xrotation Yrotation
									JOINT RFingers
									{
OFFSET 0 -0.543620 -0.000000
CHANNELS 3 Zrotation Xrotation Yrotation
										End Site
										{
OFFSET 0 -0.438280 -0.000000
										}
									}
								}
								JOINT RThumb
								{
OFFSET 0 0.000000 0.000000
CHANNELS 3 Zrotation Xrotation Yrotation
									End Site
									{
OFFSET 0 -0.444970 0.444970
									}
								}
							}
						}
					}
				}
			}
		}
	}
}
MOTION
Frames: 12
Frame Time: 0.008333333333333333
35.589953 16.091900 1.083263 96.722173 -265.590222 108.180649 0.000000 0.000000 0.000000 -24.387632 -22.590698 -7.286368 1.195360 6.937463 19.530229 -0.167620 -10.056426 11.132482 7.428337 -15.682237 -50.476347 0.000000 0.000000 0.000000 29.408791 24.976070 -9.757780 -0.010979 0.668658 -1.837539 -1.644128 -1.011730 23.973508 -0.112352 -2.150122 5.921158 3.711017 4.316802 13.655057 -4.322590 6.470860 -11.158181 -9.240814 1.980062 -19.934112 14.676480 6.356806 -15.025153 2.312001 5.738115 34.420970 -0.393251 5.212439 15.016920 0.000000 0.000000 0.000000 27.960571 19.577360 -33.186063 15.504544 -24.844170 3.435191 29.455460 24.788241 -26.936210 0.000000 0.000000 0.000000 -7.125000 0.000000 0.000000 -0.775149 60.244017 0.288213 0.000000 0.000000 0.000000 -10.066471 16.938921 35.928317 -28.797555 -39.840173 -10.630755 -28.591151 -5.196828 16.572419 0.000000 0.000000 0.000000 7.125000 0.000000 0.000000 -0.762183 48.700633 0.069320
35.476897 16.081641 1.005664 110.945908 -265.369594 122.640923 0.000000 0.000000 0.000000 -24.632474 -22.532595 -8.039176 1.209796 6.977719 19.649336 -0.300340 -11.363377 10.573431 7.397367 -15.657595 -50.361727 0.000000 0.000000 0.000000 28.917893 25.576991 -10.147751 -0.017257 0.846475 -2.326463 -1.584628 -3.022168 23.033999 -0.158541 -2.560914 7.058814 3.742707 4.106818 13.772963 -4.218709 6.191448 -11.082505 -9.063447 1.854976 -19.973115 14.634473 6.302806 -15.124378 1.761804 5.760149 34.189302 -0.623734 5.103428 14.939829 0.000000 0.000000 0.000000 27.940210 17.557202 -31.593521 15.450398 -24.769780 3.412421 29.731434 25.844762 -26.824092 0.000000 0.000000 0.000000 -7.125000 0.000000 0.000000 -0.408405 60.192328 0.151651 0.000000 0.000000 0.000000 -10.192107 17.597574 35.096119 -28.706955 -39.758952 -10.572796 -28.302162 -5.299630 16.777757 0.000000 0.000000 0.000000 7.125000 0.000000 0.000000 -0.448105 48.881771 0.042652
35.359669 16.065418 0.928215 123.587354 -264.821075 135.543861 0.000000 0.000000 0.000000 -24.742919 -22.455762 -8.892887 1.230665 7.035394 19.820190 -0.410781 -12.379081 10.041749 7.343708 -15.614626 -50.162551 0.000000 0.000000 0.000000 28.431924 25.799180 -10.972530 -0.019537 0.902773 -2.481335 -1.519845 -5.021881 22.226418 -0.200127 -2.878403 7.940484 3.873254 3.979162 13.906106 -4.142311 6.046430 -11.009968 -9.012448 1.774346 -19.989139 14.508727 6.222849 -15.296174 1.274487 5.725197 33.846693 -0.824890 4.961438 14.817050 0.000000 0.000000 0.000000 27.981922 15.562432 -30.231376 15.604785 -24.981806 3.477467 30.335904 26.380433 -26.516513 0.000000 0.000000 0.000000 -7.125000 0.000000 0.000000 0.413585 60.011046 -0.150887 0.000000 0.000000 0.000000 -10.289589 18.213232 34.247676 -28.611195 -39.672844 -10.511582 -28.031795 -5.363585 16.976896 0.000000 0.000000 0.000000 7.125000 0.000000 0.000000 -0.151422 49.058307 0.014990
35.237557 16.044543 0.850609 133.795604 -263.974114 146.058679 0.000000 0.000000 0.000000 -24.699304 -22.319430 -9.883444 1.256665 7.106449 20.031208 -0.495927 -13.119388 9.554160 7.241629 -15.531937 -49.782217 0.000000 0.000000 0.000000 27.901036 26.006082 -12.175228 -0.013113 0.736702 -2.024748 -1.311165 -7.171858 20.472908 -0.313715 -3.594957 9.940394 4.130291 3.942818 14.074384 -4.125568 6.052616 -10.957321 -9.153435 1.735452 -20.010246 14.283542 6.103330 -15.540585 0.902718 5.599670 33.364693 -0.978457 4.776261 14.631817 0.000000 0.000000 0.000000 28.154283 13.675500 -29.291147 15.991769 -25.509237 3.642547 31.134242 26.218141 -26.126455 0.000000 0.000000 0.000000 -7.125000 0.000000 0.000000 1.485139 59.786463 -0.535728 0.000000 0.000000 0.000000 -10.298287 18.789620 33.351380 -28.519596 -39.590224 -10.453193 -27.790359 -5.368909 17.183130 0.000000 0.000000 0.000000 7.125000 0.000000 0.000000 0.119726 49.246541 -0.012597
35.109733 16.021179 0.772376 141.470686 -262.889805 154.091439 0.000000 0.000000 0.000000 -24.515742 -22.123404 -11.021730 1.286838 7.188268 20.274340 -0.564776 -13.700152 9.110536 7.087097 -15.404705 -49.202751 0.000000 0.000000 0.000000 27.496670 25.700287 -13.897367 -0.003400 0.365821 -1.005199 -1.003688 -9.061390 18.040274 -0.504915 -4.549160 12.628266 4.468062 3.980570 14.260199 -4.245607 6.163913 -11.163208 -9.356089 1.763590 -19.830386 14.008200 5.961623 -15.824030 0.621635 5.413840 32.744788 -1.096682 4.564853 14.385739 0.000000 0.000000 0.000000 28.459496 12.029328 -28.841304 16.636926 -26.376253 3.924866 31.899433 25.482190 -25.863670 0.000000 0.000000 0.000000 -7.125000 0.000000 0.000000 2.472570 59.690528 -0.887066 0.000000 0.000000 0.000000 -10.213530 19.303545 32.452208 -28.421127 -39.501077 -10.390536 -27.566634 -5.295306 17.419645 0.000000 0.000000 0.000000 7.125000 0.000000 0.000000 0.380284 49.470111 -0.041918
34.976487 15.997064 0.694785 147.043514 -261.631304 160.058902 0.000000 0.000000 0.000000 -24.222971 -21.852003 -12.294207 1.321807 7.281313 20.551442 -0.627243 -14.209713 8.610904 6.893895 -15.241669 -48.471584 0.000000 0.000000 0.000000 27.260002 25.151608 -15.998998 -0.003037 -0.249945 0.686807 -0.671972 -9.988113 15.202294 -0.722961 -5.332540 14.880447 4.840920 4.054627 14.519105 -4.311174 6.352940 -11.190992 -9.732455 1.770984 -19.950276 13.735008 5.823867 -16.094325 0.379306 5.225148 32.026302 -1.198752 4.354560 14.096897 0.000000 0.000000 0.000000 28.840673 10.760520 -28.833608 17.523272 -27.540484 4.327591 32.628197 24.471871 -25.655104 0.000000 0.000000 0.000000 -7.125000 0.000000 0.000000 3.399570 59.644009 -1.216179 0.000000 0.000000 0.000000 -10.068798 19.725198 31.629618 -28.284070 -39.376342 -10.303416 -27.388271 -5.145035 17.637095 0.000000 0.000000 0.000000 7.125000 0.000000 0.000000 0.594843 49.679580 -0.068730
34.840732 15.973780 0.619675 151.249725 -260.285427 164.655539 0.000000 0.000000 0.000000 -23.891952 -21.495589 -13.616600 1.357530 7.375090 20.831481 -0.686628 -14.684112 8.011715 6.681855 -15.057557 -47.659709 0.000000 0.000000 0.000000 27.211069 24.471382 -18.271476 -0.031182 -1.075499 2.957335 -0.573729 -7.891212 13.760218 -0.154726 -2.314579 6.384303 5.136620 4.133392 14.781276 -4.356064 6.538395 -11.248252 -10.046206 1.784421 -20.120135 13.482760 5.707182 -16.315128 0.136062 5.078909 31.291236 -1.294949 4.167698 13.800252 0.000000 0.000000 0.000000 29.197920 9.903354 -29.108613 18.557871 -28.862139 4.817241 33.320940 23.457650 -25.442285 0.000000 0.000000 0.000000 -7.125000 0.000000 0.000000 4.283407 59.583166 -1.526702 0.000000 0.000000 0.000000 -9.917816 20.049528 30.933594 -28.085293 -39.194480 -10.177653 -27.247340 -4.913502 17.778823 0.000000 0.000000 0.000000 7.125000 0.000000 0.000000 0.760089 49.811467 -0.090230
34.705317 15.953632 0.548867 154.484952 -258.921499 168.219863 0.000000 0.000000 0.000000 -23.577443 -21.051226 -14.879892 1.389024 7.456783 21.075972 -0.740615 -15.115670 7.320407 6.448652 -14.848782 -46.755649 0.000000 0.000000 0.000000 27.375096 23.632694 -20.509399 -0.109121 -2.074858 5.714568 -0.461973 -5.716353 12.151052 -0.011928 -0.065894 0.181011 5.306741 4.191076 15.019117 -4.352736 6.672919 -11.314877 -10.217851 1.795256 -20.315805 13.294078 5.624273 -16.463158 -0.154800 5.005198 30.629512 -1.404738 4.021718 13.534803 0.000000 0.000000 0.000000 29.441740 9.450547 -29.501318 19.621397 -30.179638 5.341521 33.889637 22.590126 -25.238498 0.000000 0.000000 0.000000 -7.125000 0.000000 0.000000 5.014275 59.500256 -1.778177 0.000000 0.000000 0.000000 -9.787574 20.279931 30.391418 -27.813562 -38.943675 -10.006394 -27.149956 -4.610834 17.808929 0.000000 0.000000 0.000000 7.125000 0.000000 0.000000 0.862221 49.828194 -0.102617
34.573530 15.938974 0.483835 156.992247 -257.595793 170.947806 0.000000 0.000000 0.000000 -23.315794 -20.540975 -15.956457 1.408021 7.505482 21.221844 -0.783402 -15.467784 6.589126 6.201911 -14.620410 -45.785260 0.000000 0.000000 0.000000 27.742420 22.619447 -22.465161 -0.255228 -3.206534 8.858044 -0.327168 -3.456111 10.132231 -0.051020 1.355679 -3.729520 5.381469 4.223599 15.206074 -4.309942 6.753098 -11.372137 -10.266320 1.802082 -20.493119 13.200868 5.566041 -16.529730 -0.516394 4.990511 30.094957 -1.544550 3.914682 13.320957 0.000000 0.000000 0.000000 29.525120 9.318116 -29.917019 20.594716 -31.349165 5.839030 34.250258 21.893501 -25.128484 0.000000 0.000000 0.000000 -7.125000 0.000000 0.000000 5.473092 59.468926 -1.937514 0.000000 0.000000 0.000000 -9.657319 20.427550 29.990813 -27.454413 -38.608481 -9.781542 -27.126425 -4.297991 17.699498 0.000000 0.000000 0.000000 7.125000 0.000000 0.000000 0.865657 49.704303 -0.100432
34.446947 15.931746 0.424860 158.950653 -256.348247 172.996312 0.000000 0.000000 0.000000 -23.128909 -20.013048 -16.747306 1.408130 7.505693 21.222379 -0.816991 -15.766214 5.836469 5.950841 -14.379723 -44.782447 0.000000 0.000000 0.000000 28.249084 21.424712 -23.946965 -0.481443 -4.415491 12.253907 -0.164028 -1.234831 7.164135 -0.092487 1.960631 -5.396900 5.435455 4.240975 15.333658 -4.264964 6.803678 -11.412480 -10.281668 1.804951 -20.618292 13.210322 5.503998 -16.520215 -0.930915 4.984689 29.715343 -1.717574 3.829125 13.165376 0.000000 0.000000 0.000000 29.447519 9.394093 -30.346207 21.367418 -32.253079 6.245598 34.419671 21.298542 -25.123720 0.000000 0.000000 0.000000 -7.125000 0.000000 0.000000 5.679798 59.506848 -2.016148 0.000000 0.000000 0.000000 -9.469482 20.512447 29.691025 -26.998226 -38.176724 -9.498377 -27.190631 -4.036772 17.471326 0.000000 0.000000 0.000000 7.125000 0.000000 0.000000 0.761251 49.464667 -0.083980
34.326847 15.932559 0.371128 160.490843 -255.214317 174.490022 0.000000 0.000000 0.000000 -23.028388 -19.566452 -17.167080 1.380159 7.433773 21.006992 -0.849165 -16.089708 5.019957 5.709448 -14.140052 -43.802832 0.000000 0.000000 0.000000 28.767526 20.107372 -24.823446 -0.806243 -5.705264 15.938133 -0.024725 0.967483 2.760774 -0.072552 1.729948 -4.760086 5.525935 4.251159 15.391329 -4.240038 6.845551 -11.430920 -10.325775 1.805251 -20.663560 13.156414 5.412499 -16.559546 -1.150723 4.907981 29.631218 -1.810328 3.750229 13.132492 0.000000 0.000000 0.000000 29.201896 9.598873 -30.793157 21.871573 -32.831067 6.516304 34.419154 20.744694 -25.213231 0.000000 0.000000 0.000000 -7.125000 0.000000 0.000000 5.662291 59.607276 -2.023446 0.000000 0.000000 0.000000 -9.202260 20.559711 29.468445 -26.465527 -37.663940 -9.170941 -27.322979 -3.864541 17.180469 0.000000 0.000000 0.000000 7.125000 0.000000 0.000000 0.580138 49.166872 -0.059824
34.212985 15.941068 0.320878 161.818065 -254.225182 175.646022 0.000000 0.000000 0.000000 -23.058339 -19.294133 -17.190823 1.323770 7.286436 20.566834 -0.886477 -16.512061 4.101851 5.485627 -13.910331 -42.880091 0.000000 0.000000 0.000000 29.161669 18.654261 -25.102432 -1.229762 -7.019617 19.778795 -0.029298 2.826894 -2.939275 -0.023979 0.962773 -2.646689 5.650320 4.255862 15.373334 -4.241596 6.879153 -11.429530 -10.404210 1.803387 -20.627061 12.862307 5.283183 -16.758307 -0.943057 4.714694 29.950526 -1.707820 3.672932 13.275187 0.000000 0.000000 0.000000 28.768534 9.913154 -31.253035 22.104147 -33.094541 6.642645 34.228969 20.248806 -25.391475 0.000000 0.000000 0.000000 -7.125000 0.000000 0.000000 5.395679 59.758501 -1.947168 0.000000 0.000000 0.000000 -8.884650 20.603556 29.332606 -25.902682 -37.111915 -8.829072 -27.457711 -3.790657 16.897077 0.000000 0.000000 0.000000 7.125000 0.000000 0.000000 0.400328 48.876912 -0.038378
